<svg width="14" height="38" viewBox="0 0 14 38" fill="none" xmlns="http://www.w3.org/2000/svg">
<path d="M0 0L11.9084 6.46454C13.1973 7.16427 14 8.51331 14 9.97996V28.02C14 29.4867 13.1973 30.8357 11.9084 31.5355L0 38V0Z" fill="#E8E8E8"/>
<path d="M8.7779 21.774L5.83181 18.9964L8.7779 16.2188C9.07403 15.9396 9.07403 15.4886 8.7779 15.2094C8.48178 14.9302 8.00342 14.9302 7.70729 15.2094L4.2221 18.4953C3.92597 18.7745 3.92597 19.2255 4.2221 19.5047L7.70729 22.7906C8.00342 23.0698 8.48178 23.0698 8.7779 22.7906C9.06644 22.5114 9.07403 22.0532 8.7779 21.774Z" fill="white"/>
</svg>
