<svg width="20" height="20" viewBox="0 0 20 20" fill="none" xmlns="http://www.w3.org/2000/svg">
<path d="M15.8333 15.8335H6.66666C6.20832 15.8335 5.8161 15.6704 5.48999 15.3443C5.16332 15.0177 4.99999 14.6252 4.99999 14.1668V2.50016C4.99999 2.04183 5.16332 1.64933 5.48999 1.32266C5.8161 0.996552 6.20832 0.833496 6.66666 0.833496H11.8125C12.0347 0.833496 12.2467 0.875163 12.4483 0.958496C12.6494 1.04183 12.8264 1.15989 12.9792 1.31266L17.0208 5.35433C17.1736 5.50711 17.2917 5.68405 17.375 5.88516C17.4583 6.08683 17.5 6.29877 17.5 6.521V14.1668C17.5 14.6252 17.3369 15.0177 17.0108 15.3443C16.6842 15.6704 16.2917 15.8335 15.8333 15.8335ZM11.6667 2.50016H6.66666V14.1668H15.8333V6.66683H12.5C12.2639 6.66683 12.0661 6.58711 11.9067 6.42766C11.7467 6.26766 11.6667 6.06961 11.6667 5.8335V2.50016ZM3.33332 19.1668C2.87499 19.1668 2.48277 19.0038 2.15666 18.6777C1.82999 18.351 1.66666 17.9585 1.66666 17.5002V6.66683C1.66666 6.43072 1.74666 6.23266 1.90666 6.07266C2.0661 5.91322 2.26388 5.8335 2.49999 5.8335C2.7361 5.8335 2.93416 5.91322 3.09416 6.07266C3.2536 6.23266 3.33332 6.43072 3.33332 6.66683V17.5002H11.6667C11.9028 17.5002 12.1008 17.5802 12.2608 17.7402C12.4203 17.8996 12.5 18.0974 12.5 18.3335C12.5 18.5696 12.4203 18.7674 12.2608 18.9268C12.1008 19.0868 11.9028 19.1668 11.6667 19.1668H3.33332ZM6.66666 2.50016V6.66683V2.50016V14.1668V2.50016Z" fill="#42526E"/>
</svg>
