<svg width="20" height="20" viewBox="0 0 20 20" fill="none" xmlns="http://www.w3.org/2000/svg">
<path d="M12.5605 2.9107C12.0761 2.50955 11.467 2.29004 10.8381 2.29004H5.44488C4.83091 2.29004 4.24208 2.49206 3.80793 2.85166C3.37378 3.21126 3.12988 3.69899 3.12988 4.20754V15.7125C3.12988 16.2211 3.37378 16.7088 3.80793 17.0684C4.24208 17.428 4.83091 17.63 5.44488 17.63H14.7049C15.3189 17.63 15.9077 17.428 16.3418 17.0684C16.776 16.7088 17.0199 16.2211 17.0199 15.7125V7.87394C17.0199 7.06982 16.6615 6.30754 16.0422 5.7946L12.5605 2.9107ZM9.89364 3.24879C10.9526 3.24879 11.8111 4.10728 11.8111 5.16629C11.8111 5.5477 11.9941 5.9135 12.3197 6.1832C12.6453 6.4529 13.0869 6.60441 13.5474 6.60441C14.8259 6.60441 15.8624 7.64087 15.8624 8.91941V15.7125C15.8624 15.9668 15.7404 16.2107 15.5234 16.3905C15.3063 16.5703 15.0119 16.6713 14.7049 16.6713H5.44488C5.13789 16.6713 4.84348 16.5703 4.62641 16.3905C4.40933 16.2107 4.28738 15.9668 4.28738 15.7125V4.20754C4.28738 3.95326 4.40933 3.7094 4.62641 3.5296C4.84348 3.3498 5.13789 3.24879 5.44488 3.24879H9.89364Z" fill="#42526E" stroke="#42526E" stroke-width="0.5"/>
<path d="M13.0167 14.3864H7" stroke="#42526E" stroke-width="1.5" stroke-linecap="round" stroke-linejoin="round"/>
<path d="M13.0167 10.897H7" stroke="#42526E" stroke-width="1.5" stroke-linecap="round" stroke-linejoin="round"/>
<path d="M9.29583 7.41667H7" stroke="#42526E" stroke-width="1.5" stroke-linecap="round" stroke-linejoin="round"/>
</svg>
